<svg width="84" height="28" viewBox="0 0 84 28" fill="none" xmlns="http://www.w3.org/2000/svg">
<path fill-rule="evenodd" clip-rule="evenodd" d="M26.1307 27.622C25.511 27.622 25.0978 26.9742 25.3664 26.41L37.327 1.27079C37.4716 0.978234 37.7608 0.790161 38.0913 0.790161H44.9703C45.2801 0.790161 45.59 0.978234 45.7139 1.27079L57.9638 26.41C58.2323 26.9742 57.8398 27.6429 57.2201 27.6429H50.3618C50.052 27.6429 49.7628 27.4549 49.6182 27.1832L47.9036 23.7979H35.22L33.2782 27.225C33.1336 27.4967 32.8444 27.6429 32.5552 27.6429H26.1307V27.622ZM41.4585 10.1521L38.5871 16.3794H44.6604L41.4792 10.1521H41.4585Z" fill="#FFEB00"/>
<path fill-rule="evenodd" clip-rule="evenodd" d="M2.00285 0.748352C1.23853 0.748352 0.598145 1.37527 0.598145 2.16936V26.201C0.598145 26.9742 1.21787 27.622 2.00285 27.622H15.9673C32.2247 26.2219 32.2247 2.14846 15.9673 0.748352H2.00285ZM9.62544 19.9737C8.86112 19.9737 8.22074 19.3468 8.22074 18.5527V9.58783C8.22074 8.81463 8.84046 8.16683 9.62544 8.16683H15.079C22.0819 8.91912 22.0819 19.2214 15.079 19.9737H9.62544Z" fill="#FFEB00"/>
<path fill-rule="evenodd" clip-rule="evenodd" d="M69.408 27.622C77.3818 27.622 83.8476 21.4992 83.8476 13.9344C83.8476 6.36968 77.3818 0.246826 69.408 0.246826C61.4343 0.246826 54.9685 6.36968 54.9685 13.9344C54.9685 21.4992 61.4343 27.622 69.408 27.622ZM69.408 20.4752C73.4776 20.4752 75.7705 17.0272 75.7705 13.9344C75.7705 10.8417 73.2297 8.04144 69.408 8.04144C65.5864 8.04144 62.9629 10.8417 62.9629 13.9344C62.9629 17.0272 65.3385 20.4752 69.408 20.4752Z" fill="#FFEB00"/>
</svg>
