<svg width="60" height="60" viewBox="0 0 60 60" fill="none" xmlns="http://www.w3.org/2000/svg">
<path d="M33.505 33.5051L40.5151 30M37.01 22.9899H37.0275M29.9999 19.4848H30.0174M22.9897 22.9899H23.0073M19.4847 30H19.5022M33.505 35.2576C33.505 37.1935 31.9357 38.7627 29.9999 38.7627C28.064 38.7627 26.4948 37.1935 26.4948 35.2576C26.4948 33.3218 28.064 31.7525 29.9999 31.7525C31.9357 31.7525 33.505 33.3218 33.505 35.2576ZM45.7727 30C45.7727 38.7112 38.711 45.7728 29.9999 45.7728C21.2888 45.7728 14.2271 38.7112 14.2271 30C14.2271 21.2889 21.2888 14.2272 29.9999 14.2272C38.711 14.2272 45.7727 21.2889 45.7727 30Z" stroke="#FFEB00" stroke-width="3.50507" stroke-linecap="round" stroke-linejoin="round"/>
</svg>
