<svg width="60" height="60" viewBox="0 0 60 60" fill="none" xmlns="http://www.w3.org/2000/svg">
<path d="M30 7.50001L31.223 5.31963C30.4635 4.89346 29.5365 4.89346 28.777 5.31963L30 7.50001ZM33.494 9.46001L32.271 11.6404C32.6355 11.8448 33.0453 11.9546 33.463 11.9598L33.494 9.46001ZM37.5 9.50963L39.6495 8.23291C39.2045 7.48398 38.402 7.02061 37.531 7.00981L37.5 9.50963ZM39.546 12.9541L37.3965 14.2308C37.61 14.59 37.91 14.8901 38.2693 15.1035L39.546 12.9541ZM42.9905 15L45.4903 14.969C45.4795 14.098 45.016 13.2954 44.267 12.8506L42.9905 15ZM43.04 19.006L40.5403 19.0369C40.5453 19.4547 40.6553 19.8646 40.8595 20.229L43.04 19.006ZM45 22.5L47.1805 23.7231C47.6065 22.9634 47.6065 22.0366 47.1805 21.2769L45 22.5ZM43.04 25.994L40.8595 24.771C40.6553 25.1355 40.5453 25.5453 40.5403 25.963L43.04 25.994ZM42.9905 30L44.267 32.1495C45.016 31.7045 45.4795 30.902 45.4903 30.031L42.9905 30ZM39.546 32.046L38.2693 29.8965C37.91 30.11 37.61 30.41 37.3965 30.7693L39.546 32.046ZM37.5 35.4905L37.531 37.9903C38.402 37.9795 39.2045 37.516 39.6495 36.767L37.5 35.4905ZM33.494 35.54L33.463 33.0403C33.0453 33.0453 32.6355 33.1553 32.271 33.3595L33.494 35.54ZM30 37.5L28.777 39.6805C29.5365 40.1065 30.4635 40.1065 31.223 39.6805L30 37.5ZM26.506 35.54L27.729 33.3595C27.3645 33.1553 26.9548 33.0453 26.537 33.0403L26.506 35.54ZM22.5 35.4905L20.3506 36.767C20.7954 37.516 21.598 37.9795 22.469 37.9903L22.5 35.4905ZM20.4541 32.046L22.6035 30.7693C22.3901 30.41 22.0901 30.11 21.7308 29.8965L20.4541 32.046ZM17.0096 30L14.5098 30.031C14.5206 30.902 14.984 31.7045 15.7329 32.1495L17.0096 30ZM16.96 25.994L19.4598 25.963C19.4546 25.5453 19.3448 25.1355 19.1404 24.771L16.96 25.994ZM15 22.5L12.8196 21.2769C12.3935 22.0366 12.3935 22.9634 12.8196 23.7231L15 22.5ZM16.96 19.006L19.1404 20.229C19.3448 19.8646 19.4546 19.4547 19.4598 19.0369L16.96 19.006ZM17.0096 15L15.7329 12.8506C14.984 13.2954 14.5206 14.098 14.5098 14.9691L17.0096 15ZM20.4541 12.9541L21.7308 15.1035C22.0901 14.8901 22.3901 14.5901 22.6035 14.2308L20.4541 12.9541ZM22.5 9.50963L22.4691 7.00981C21.598 7.02061 20.7954 7.48398 20.3506 8.23291L22.5 9.50963ZM26.506 9.46001L26.537 11.9598C26.9548 11.9546 27.3645 11.8448 27.729 11.6404L26.506 9.46001ZM21.25 52.5H18.75C18.75 53.3913 19.2244 54.215 19.9952 54.6623C20.766 55.1095 21.7166 55.1128 22.4904 54.6705L21.25 52.5ZM30 47.5L31.2403 45.3295C30.4718 44.8903 29.5283 44.8903 28.7598 45.3295L30 47.5ZM38.75 52.5L37.5098 54.6705C38.2835 55.1128 39.234 55.1095 40.0048 54.6623C40.7755 54.215 41.25 53.3913 41.25 52.5H38.75ZM28.777 9.68038L32.271 11.6404L34.7173 7.27963L31.223 5.31963L28.777 9.68038ZM33.463 11.9598L37.469 12.0094L37.531 7.00981L33.525 6.96021L33.463 11.9598ZM35.3505 10.7864L37.3965 14.2308L41.6953 11.6774L39.6495 8.23291L35.3505 10.7864ZM38.2693 15.1035L41.7138 17.1494L44.267 12.8506L40.8228 10.8047L38.2693 15.1035ZM40.4905 15.031L40.5403 19.0369L45.5398 18.975L45.4903 14.969L40.4905 15.031ZM40.8595 20.229L42.8195 23.7231L47.1805 21.2769L45.2205 17.7829L40.8595 20.229ZM42.8195 21.2769L40.8595 24.771L45.2205 27.2173L47.1805 23.7231L42.8195 21.2769ZM40.5403 25.963L40.4905 29.969L45.4903 30.031L45.5398 26.025L40.5403 25.963ZM37.469 32.9905L33.463 33.0403L33.525 38.0398L37.531 37.9903L37.469 32.9905ZM26.537 33.0403L22.531 32.9905L22.469 37.9903L26.475 38.0398L26.537 33.0403ZM19.5094 29.969L19.4598 25.963L14.4602 26.025L14.5098 30.031L19.5094 29.969ZM19.1404 24.771L17.1804 21.2769L12.8196 23.7231L14.7796 27.2173L19.1404 24.771ZM17.1804 23.7231L19.1404 20.229L14.7796 17.7829L12.8196 21.2769L17.1804 23.7231ZM19.4598 19.0369L19.5094 15.031L14.5098 14.9691L14.4602 18.975L19.4598 19.0369ZM18.2864 17.1494L21.7308 15.1035L19.1774 10.8047L15.7329 12.8506L18.2864 17.1494ZM22.6035 14.2308L24.6494 10.7864L20.3506 8.23291L18.3047 11.6774L22.6035 14.2308ZM22.531 12.0094L26.537 11.9598L26.475 6.96021L22.4691 7.00981L22.531 12.0094ZM27.729 11.6404L31.223 9.68038L28.777 5.31963L25.2828 7.27963L27.729 11.6404ZM41.7138 27.8505L38.2693 29.8965L40.8228 34.1953L44.267 32.1495L41.7138 27.8505ZM21.7308 29.8965L18.2864 27.8505L15.7329 32.1495L19.1774 34.1953L21.7308 29.8965ZM32.271 33.3595L28.777 35.3195L31.223 39.6805L34.7173 37.7205L32.271 33.3595ZM31.223 35.3195L27.729 33.3595L25.2828 37.7205L28.777 39.6805L31.223 35.3195ZM22.4904 54.6705L31.2403 49.6705L28.7598 45.3295L20.0097 50.3295L22.4904 54.6705ZM28.7598 49.6705L37.5098 54.6705L39.9903 50.3295L31.2403 45.3295L28.7598 49.6705ZM41.25 52.5V33.386H36.25V52.5H41.25ZM37.3965 30.7693L36.6005 32.1093L40.8995 34.6628L41.6953 33.3228L37.3965 30.7693ZM36.6005 32.1093L35.3505 34.2138L39.6495 36.767L40.8995 34.6628L36.6005 32.1093ZM18.75 33.386V52.5H23.75V33.386H18.75ZM24.6494 34.2138L23.3994 32.1093L19.1006 34.6628L20.3506 36.767L24.6494 34.2138ZM23.3994 32.1093L22.6035 30.7693L18.3047 33.3228L19.1006 34.6628L23.3994 32.1093ZM32.5 22.5C32.5 23.8807 31.3808 25 30 25V30C34.1423 30 37.5 26.6423 37.5 22.5H32.5ZM30 25C28.6193 25 27.5 23.8807 27.5 22.5H22.5C22.5 26.6423 25.8578 30 30 30V25ZM27.5 22.5C27.5 21.1193 28.6193 20 30 20V15C25.8578 15 22.5 18.3579 22.5 22.5H27.5ZM30 20C31.3808 20 32.5 21.1193 32.5 22.5H37.5C37.5 18.3579 34.1423 15 30 15V20Z" fill="#FFEB00"/>
</svg>
