<svg width="60" height="60" viewBox="0 0 60 60" fill="none" xmlns="http://www.w3.org/2000/svg">
<path d="M14.6436 47.3311C14.6436 40.5618 19.6492 34.9617 26.1609 34.0303M38.6334 38.1401C37.2901 36.6446 35.0502 36.2422 33.3671 37.6118C31.6843 38.9812 31.4472 41.2711 32.769 42.8908C33.5151 43.8053 35.288 45.4083 36.6905 46.6311C37.3556 47.211 37.6881 47.501 38.0904 47.6196C38.4334 47.7208 38.8335 47.7208 39.1765 47.6196C39.5788 47.501 39.9113 47.211 40.5764 46.6311C41.9789 45.4083 43.7518 43.8053 44.4979 42.8908C45.8197 41.2711 45.6116 38.9668 43.8998 37.6118C42.1877 36.2566 39.9768 36.6446 38.6334 38.1401ZM35.7587 20.4573C35.7587 24.6979 32.321 28.1355 28.0805 28.1355C23.8399 28.1355 20.4022 24.6979 20.4022 20.4573C20.4022 16.2167 23.8399 12.7791 28.0805 12.7791C32.321 12.7791 35.7587 16.2167 35.7587 20.4573Z" stroke="#FFEB00" stroke-width="5" stroke-linecap="round" stroke-linejoin="round"/>
</svg>
