<svg width="60" height="60" viewBox="0 0 60 60" fill="none" xmlns="http://www.w3.org/2000/svg">
<path d="M11.2319 40.4999C11.2319 42.3719 11.8919 43.9559 13.2119 45.2519C14.5319 46.5479 16.1279 47.2079 17.9999 47.2319H40.4999C42.3479 47.2319 43.9319 46.5719 45.2519 45.2519C46.5719 43.9319 47.2319 42.3479 47.2319 40.4999V17.9999C47.2319 16.1279 46.5719 14.5319 45.2519 13.2119C43.9319 11.8919 42.3479 11.2319 40.4999 11.2319H17.9999C16.1279 11.2319 14.5319 11.8919 13.2119 13.2119C11.8919 14.5319 11.2319 16.1279 11.2319 17.9999L11.2319 40.4999ZM15.7319 40.4999V17.9999C15.7319 17.3759 15.9479 16.8479 16.3799 16.4159C16.8119 15.9839 17.3519 15.7559 17.9999 15.7319H40.4999C41.0999 15.7319 41.6279 15.9599 42.0839 16.4159C42.5399 16.8719 42.7559 17.3999 42.7319 17.9999V40.4999C42.7319 41.1239 42.5159 41.6519 42.0839 42.0839C41.6519 42.5159 41.1239 42.7319 40.4999 42.7319H17.9999C17.3759 42.7319 16.8359 42.5159 16.3799 42.0839C15.9239 41.6519 15.7079 41.1239 15.7319 40.4999ZM17.9999 31.4999L26.9999 40.4999V33.7319C26.9999 33.1079 26.7719 32.5799 26.3159 32.1479C25.8599 31.7159 25.3319 31.4999 24.7319 31.4999H17.9999ZM17.9999 26.9999H24.7319C25.3559 26.9999 25.8839 26.7839 26.3159 26.3519C26.7479 25.9199 26.9759 25.3799 26.9999 24.7319V17.9999L17.9999 26.9999ZM31.4999 40.4999L40.4999 31.4999H33.7319C33.1079 31.4999 32.5799 31.7159 32.1479 32.1479C31.7159 32.5799 31.4999 33.1079 31.4999 33.7319V40.4999ZM31.4999 24.7319C31.4999 25.3559 31.7159 25.8959 32.1479 26.3519C32.5799 26.8079 33.1079 27.0239 33.7319 26.9999H40.4999L31.4999 17.9999V24.7319Z" fill="#FFEB00"/>
</svg>
