<svg width="136" height="26" viewBox="0 0 136 26" fill="none" xmlns="http://www.w3.org/2000/svg">
<g clip-path="url(#clip0_11_44)">
<path fill-rule="evenodd" clip-rule="evenodd" d="M9.53935 25.6274C9.41744 24.2554 9.29553 22.8834 9.23457 21.496C9.17362 20.0932 9.1279 18.6904 9.09743 17.2876C8.74693 18.4746 8.3812 19.677 8.04595 20.864C7.69546 22.051 7.37545 23.2534 7.0402 24.4404C4.69343 24.5946 2.3619 24.7487 0.0151367 24.9645C1.20376 21.0644 2.4381 17.1643 3.67243 13.2487C4.89153 9.34859 6.06492 5.43304 7.14687 1.5329C8.00024 1.6254 8.86884 1.7333 9.75269 1.8258C10.3622 1.88746 10.9718 1.94912 11.5966 1.99537C12.0842 2.04162 12.5871 2.08786 13.09 2.13411C12.7547 3.614 12.3585 5.07848 11.9775 6.54296C11.5966 8.00743 11.1851 9.48733 10.7889 10.9518C11.7185 9.30234 12.6176 7.65287 13.4862 6.01883C14.3548 4.40019 15.1624 2.78156 15.9549 1.17834C16.8235 1.28625 17.6921 1.40958 18.5607 1.51749C19.1855 1.59456 19.8103 1.67164 20.4655 1.74872C20.9836 1.81038 21.5018 1.85663 22.0199 1.91829C20.9532 3.87607 19.795 5.86467 18.6064 7.85328C17.4025 9.87271 16.153 11.923 14.8424 13.9887C15.1472 15.8231 15.4825 17.6422 15.8177 19.4458C16.153 21.234 16.5949 22.9913 17.0216 24.7333C14.5377 25.0262 12.0233 25.3191 9.55459 25.612L9.53935 25.6274ZM22.0199 22.7447C22.0199 19.8466 22.0808 16.9485 22.0961 14.0657C22.1113 11.1676 22.1266 8.2695 22.1266 5.37137C22.9647 5.37137 23.8028 5.34054 24.6562 5.32513C25.7381 5.2943 26.8506 5.27888 27.9325 5.23263C28.7402 6.41963 29.5631 7.60663 30.386 8.79363C31.2088 9.98062 32.0622 11.183 32.9156 12.3854C33.4642 11.0289 33.9975 9.67231 34.5156 8.30033C35.0338 6.92834 35.5366 5.55636 36.0395 4.16896C37.0605 4.15355 38.051 4.12271 39.072 4.07647C40.1235 4.04564 41.175 4.03022 42.2264 3.99939C42.8665 7.31373 43.5065 10.6127 44.1922 13.9424C44.878 17.2722 45.579 20.5865 46.3104 23.9163C45.5942 23.9163 44.878 23.9163 44.1465 23.9163C43.4303 23.9163 42.6836 23.9163 41.9521 23.9009C41.1293 23.8854 40.3064 23.87 39.4682 23.87C39.1635 22.236 38.8739 20.6019 38.6301 18.9525C38.3863 17.3184 38.0815 15.6844 37.8529 14.0503C37.3653 15.1602 36.8776 16.2548 36.39 17.3647C35.9024 18.4592 35.369 19.5537 34.8814 20.6328C34.1804 20.6174 33.4794 20.5865 32.7937 20.5557C31.986 19.3687 31.2393 18.1817 30.4774 17.0101C29.7154 15.8385 28.9687 14.6515 28.2373 13.48C28.3744 15.0523 28.5116 16.6247 28.6335 18.1971C28.7554 19.7695 28.8926 21.3419 29.0602 22.9143C28.2373 22.8834 27.4144 22.868 26.5915 22.8372C25.8448 22.8218 25.0829 22.8064 24.3362 22.7909C23.5895 22.7909 22.8123 22.7909 22.0504 22.7601L22.0199 22.7447Z" fill="white"/>
<path fill-rule="evenodd" clip-rule="evenodd" d="M58.6778 20.4392C58.6722 20.4393 58.6665 20.4394 58.6608 20.4394H58.6798L58.6778 20.4392ZM56.932 8.02256C56.8126 7.64939 56.7006 7.33632 56.5937 7.07652C56.3851 6.5866 56.1955 6.24873 55.9869 6.09669C55.8162 5.94465 55.5697 5.86018 55.3231 5.87707C55.0576 5.87707 54.849 5.97843 54.7163 6.16426C54.5835 6.35009 54.5266 6.72175 54.5646 7.26235C54.6025 7.80294 54.6973 8.56315 54.887 9.52609C54.8994 9.58951 54.9122 9.65426 54.9252 9.72031C55.1095 10.6571 55.3456 11.8573 55.6645 13.2934C56.0058 14.8645 56.3282 16.1146 56.6127 17.0437C56.8782 17.9729 57.0868 18.6993 57.2954 19.2061C57.523 19.7129 57.7126 20.0339 57.9402 20.186C58.1482 20.3376 58.413 20.4221 58.6778 20.4392C58.8951 20.4359 59.0249 20.3684 59.1728 20.2366C59.3245 20.0846 59.3625 19.7636 59.3625 19.2737C59.3625 18.9605 59.3335 18.5633 59.2666 18.0743H67.7165C67.7392 18.4277 67.7486 18.7656 67.7446 19.0879C67.7446 20.6252 67.4412 21.8246 66.8343 22.7369C66.2464 23.6154 65.3361 24.2235 64.1035 24.5614C62.9087 24.8824 61.3916 25.0006 59.59 24.8993L59.609 24.8824C57.6936 24.7641 56.0058 24.4432 54.5456 23.8688C53.1612 23.3282 51.9286 22.5511 50.8855 21.5712C49.8804 20.6252 49.0839 19.4426 48.4581 18.0743C47.8323 16.7059 47.3582 15.1179 47.0169 13.3272C46.7134 11.6209 46.5807 10.0498 46.6186 8.61384C46.6566 7.19477 46.941 5.94465 47.453 4.89724C47.9651 3.83294 48.7805 2.98826 49.8804 2.34631C50.9614 1.70435 52.4595 1.33269 54.318 1.21443C56.2144 1.09618 57.8074 1.26512 59.1349 1.77192C60.4434 2.26184 61.6002 3.03894 62.5674 4.08635C62.8044 4.34209 63.4254 5.11603 63.6894 5.56701L56.932 8.02256Z" fill="white"/>
<path fill-rule="evenodd" clip-rule="evenodd" d="M93.045 23.0895C92.5879 23.0895 92.2831 22.6116 92.4812 22.1954L101.304 3.65046C101.411 3.43464 101.624 3.2959 101.868 3.2959H106.943C107.171 3.2959 107.4 3.43464 107.491 3.65046L116.528 22.1954C116.726 22.6116 116.437 23.1049 115.979 23.1049H110.92C110.691 23.1049 110.478 22.9661 110.371 22.7657L109.107 20.2684H99.7501L98.3176 22.7966C98.211 22.997 97.9976 23.1049 97.7843 23.1049H93.045V23.0895ZM104.352 10.2021L102.234 14.7959H106.714L104.367 10.2021H104.352Z" fill="#FFEB00"/>
<path fill-rule="evenodd" clip-rule="evenodd" d="M75.2462 3.26514C74.6824 3.26514 74.21 3.7276 74.21 4.31339V22.0413C74.21 22.6117 74.6671 23.0895 75.2462 23.0895H85.5476C97.5405 22.0567 97.5405 4.29798 85.5476 3.26514H75.2462ZM80.8693 17.4474C80.3055 17.4474 79.8331 16.985 79.8331 16.3992V9.78591C79.8331 9.21554 80.2902 8.73766 80.8693 8.73766H84.8923C90.0583 9.29262 90.0583 16.8925 84.8923 17.4474H80.8693Z" fill="#FFEB00"/>
<path fill-rule="evenodd" clip-rule="evenodd" d="M124.97 23.0895C130.852 23.0895 135.622 18.5728 135.622 12.9923C135.622 7.4119 130.852 2.89514 124.97 2.89514C119.088 2.89514 114.318 7.4119 114.318 12.9923C114.318 18.5728 119.088 23.0895 124.97 23.0895ZM124.97 17.8174C127.972 17.8174 129.664 15.2738 129.664 12.9923C129.664 10.7108 127.789 8.64514 124.97 8.64514C122.151 8.64514 120.216 10.7108 120.216 12.9923C120.216 15.2738 121.968 17.8174 124.97 17.8174Z" fill="#FFEB00"/>
</g>
<defs>
<clipPath id="clip0_11_44">
<rect width="136" height="25" fill="white" transform="translate(0 0.5)"/>
</clipPath>
</defs>
</svg>
