<svg width="92" height="35" viewBox="0 0 92 35" fill="none" xmlns="http://www.w3.org/2000/svg">
<path fill-rule="evenodd" clip-rule="evenodd" d="M12.9314 34.0623C12.7661 32.2024 12.6009 30.3426 12.5182 28.4618C12.4356 26.5602 12.3736 24.6586 12.3323 22.7569C11.8572 24.366 11.3614 25.996 10.907 27.6051C10.4318 29.2141 9.99804 30.8441 9.54358 32.4532C6.36234 32.6622 3.20175 32.8711 0.0205078 33.1637C1.63179 27.8767 3.30504 22.5898 4.97829 17.2819C6.63088 11.9949 8.2215 6.68706 9.68818 1.4001C10.845 1.52548 12.0225 1.67176 13.2206 1.79714C14.0469 1.88073 14.8732 1.96432 15.7201 2.02701C16.3812 2.0897 17.0629 2.15239 17.7446 2.21508C17.2901 4.22121 16.753 6.20643 16.2366 8.19166C15.7201 10.1769 15.1624 12.183 14.6253 14.1682C15.8854 11.9322 17.1042 9.69625 18.2817 7.48115C19.4591 5.28696 20.554 3.09276 21.6282 0.919464C22.8056 1.06574 23.9831 1.23292 25.1606 1.3792C26.0075 1.48369 26.8545 1.58817 27.7428 1.69266C28.4451 1.77625 29.1475 1.83894 29.8498 1.92253C28.4038 4.57646 26.8338 7.27218 25.2226 9.96791C23.5906 12.7054 21.8967 15.4847 20.1202 18.285C20.5333 20.7717 20.9878 23.2376 21.4423 25.6825C21.8967 28.1066 22.4958 30.4889 23.0742 32.8502C19.707 33.2473 16.2986 33.6443 12.9521 34.0414L12.9314 34.0623ZM29.8498 30.1545C29.8498 26.2259 29.9325 22.2972 29.9531 18.3894C29.9738 14.4608 29.9944 10.5321 29.9944 6.60348C31.1306 6.60348 32.2667 6.56168 33.4236 6.54078C34.8902 6.49899 36.3982 6.47809 37.8649 6.4154C38.9598 8.02448 40.0753 9.63356 41.1908 11.2426C42.3063 12.8517 43.4631 14.4817 44.6199 16.1117C45.3636 14.2727 46.0866 12.4338 46.7889 10.5739C47.4913 8.71408 48.173 6.85424 48.8547 4.9735C50.2387 4.9526 51.5814 4.91081 52.9655 4.84812C54.3908 4.80632 55.8162 4.78543 57.2416 4.74363C58.1092 9.23651 58.9768 13.7085 59.9064 18.2223C60.836 22.736 61.7862 27.2289 62.7777 31.7427C61.8069 31.7427 60.836 31.7427 59.8444 31.7427C58.8735 31.7427 57.8613 31.7427 56.8697 31.7218C55.7542 31.7009 54.6387 31.68 53.5026 31.68C53.0894 29.4649 52.6969 27.2498 52.3664 25.0138C52.0359 22.7987 51.6227 20.5836 51.3129 18.3685C50.6518 19.8731 49.9908 21.3568 49.3298 22.8614C48.6687 24.3451 47.9457 25.8288 47.2847 27.2916C46.3345 27.2707 45.3842 27.2289 44.4546 27.1871C43.3598 25.578 42.3476 23.969 41.3147 22.3808C40.2818 20.7926 39.2696 19.1835 38.2781 17.5954C38.464 19.7269 38.6499 21.8584 38.8152 23.9899C38.9804 26.1214 39.1663 28.2529 39.3936 30.3844C38.2781 30.3426 37.1626 30.3217 36.0471 30.2799C35.0348 30.259 34.002 30.2381 32.9898 30.2172C31.9775 30.2172 30.924 30.2172 29.8911 30.1754L29.8498 30.1545Z" fill="white"/>
<path fill-rule="evenodd" clip-rule="evenodd" d="M79.5428 27.0293C79.5352 27.0294 79.5275 27.0294 79.5198 27.0294H79.5455L79.5428 27.0293ZM77.1763 10.1974C77.0143 9.69152 76.8626 9.26713 76.7177 8.91495C76.4349 8.25082 76.1778 7.79281 75.895 7.5867C75.6637 7.38059 75.3295 7.26609 74.9953 7.28899C74.6354 7.28899 74.3526 7.4264 74.1726 7.6783C73.9927 7.93021 73.9156 8.43403 73.967 9.16685C74.0184 9.89968 74.1469 10.9302 74.404 12.2356C74.4209 12.3215 74.4382 12.4093 74.4558 12.4988C74.7057 13.7687 75.0258 15.3957 75.458 17.3424C75.9207 19.4722 76.3578 21.1668 76.7434 22.4264C77.1033 23.6859 77.3861 24.6707 77.6689 25.3577C77.9773 26.0447 78.2344 26.4798 78.5429 26.6859C78.825 26.8915 79.1838 27.006 79.5428 27.0293C79.8373 27.0248 80.0134 26.9332 80.2139 26.7546C80.4195 26.5485 80.471 26.1134 80.471 25.4493C80.471 25.0246 80.4317 24.4863 80.341 23.8233H91.7956C91.8263 24.3025 91.839 24.7605 91.8336 25.1974C91.8336 27.2813 91.4223 28.9073 90.5997 30.1439C89.8028 31.3348 88.5688 32.1592 86.8978 32.6172C85.2782 33.0523 83.2217 33.2126 80.7794 33.0752L80.8052 33.0523C78.2087 32.892 75.9207 32.4569 73.9413 31.6783C72.0646 30.9455 70.3937 29.892 68.9797 28.5638C67.6172 27.2813 66.5375 25.6783 65.6892 23.8233C64.8408 21.9684 64.1982 19.8157 63.7354 17.3882C63.3241 15.0752 63.1442 12.9455 63.1956 10.9989C63.247 9.07525 63.6326 7.38059 64.3267 5.96075C65.0208 4.518 66.1262 3.37296 67.6172 2.50274C69.0826 1.63251 71.1135 1.12869 73.6328 0.968386C76.2035 0.808081 78.363 1.03709 80.1625 1.72411C81.9363 2.38823 83.5044 3.44167 84.8155 4.86151C85.1367 5.2082 85.9786 6.25733 86.3364 6.86868L77.1763 10.1974Z" fill="white"/>
</svg>
