<svg width="60" height="60" viewBox="0 0 60 60" fill="none" xmlns="http://www.w3.org/2000/svg">
<path d="M47.8292 12.1712C47.2338 11.5757 46.2713 11.5757 45.6758 12.1712L42.6832 15.1638L28.1086 17.2457C27.7827 17.2929 27.4812 17.4436 27.2466 17.6766L12.171 32.7538C11.5755 33.3478 11.5755 34.3118 12.171 34.9072L25.0931 47.8294C25.3916 48.1264 25.78 48.2757 26.1699 48.2757C26.5597 48.2757 26.9496 48.1264 27.2466 47.8294L42.3238 32.7537C42.5568 32.5192 42.7076 32.2177 42.7548 31.8917L44.8366 17.3171L47.8292 14.3245C48.4247 13.7292 48.4247 12.7666 47.8292 12.1712ZM29.5539 37.1688C29.2569 37.4658 28.8671 37.6151 28.4771 37.6151C28.0872 37.6151 27.6974 37.4658 27.4004 37.1688L22.8316 32.6C22.2361 32.0045 22.2361 31.042 22.8316 30.4465C23.427 29.8511 24.3895 29.8511 24.985 30.4465L29.5538 35.0154C30.1493 35.6108 30.1493 36.5734 29.5539 37.1688ZM34.1227 32.6C33.8257 32.8969 33.4359 33.0462 33.046 33.0462C32.6561 33.0462 32.2662 32.8969 31.9692 32.6L27.4004 28.0311C26.8049 27.4357 26.8049 26.4732 27.4004 25.8777C27.9958 25.2823 28.9584 25.2823 29.5538 25.8777L34.1226 30.4465C34.7182 31.042 34.7182 32.0045 34.1227 32.6Z" fill="#FFEB00"/>
</svg>
