<svg width="60" height="60" viewBox="0 0 60 60" fill="none" xmlns="http://www.w3.org/2000/svg">
<path d="M21.015 46.6709C25.018 46.6709 28.2631 43.4258 28.2631 39.4228C28.2631 35.4198 25.018 32.1747 21.015 32.1747C17.0119 32.1747 13.7668 35.4198 13.7668 39.4228C13.7668 43.4258 17.0119 46.6709 21.015 46.6709Z" fill="#FFEB00"/>
<path d="M39.0086 46.6709C43.0117 46.6709 46.2568 43.4258 46.2568 39.4228C46.2568 35.4198 43.0117 32.1747 39.0086 32.1747C35.0056 32.1747 31.7605 35.4198 31.7605 39.4228C31.7605 43.4258 35.0056 46.6709 39.0086 46.6709Z" fill="#FFEB00"/>
<path d="M20.9913 27.8255C24.9943 27.8255 28.2394 24.5804 28.2394 20.5773C28.2394 16.5743 24.9943 13.3292 20.9913 13.3292C16.9883 13.3292 13.7432 16.5743 13.7432 20.5773C13.7432 24.5804 16.9883 27.8255 20.9913 27.8255Z" fill="#FFEB00"/>
<path d="M38.9847 27.8256C42.9877 27.8256 46.2328 24.5805 46.2328 20.5775C46.2328 16.5744 42.9877 13.3293 38.9847 13.3293C34.9817 13.3293 31.7366 16.5744 31.7366 20.5775C31.7366 24.5805 34.9817 27.8256 38.9847 27.8256Z" fill="#FFEB00"/>
</svg>
