<svg width="60" height="60" viewBox="0 0 60 60" fill="none" xmlns="http://www.w3.org/2000/svg">
<path d="M32.8915 38.839C32.8915 40.4359 31.5969 41.7305 30 41.7305C28.4031 41.7305 27.1085 40.4359 27.1085 38.839C27.1085 37.2419 28.4031 35.9475 30 35.9475C31.5969 35.9475 32.8915 37.2419 32.8915 38.839Z" fill="#FFEB00"/>
<path fill-rule="evenodd" clip-rule="evenodd" d="M18.3225 26.1456C18.3169 25.9005 18.3136 25.6383 18.3136 25.3615C18.3136 23.653 18.439 21.3329 18.9619 18.9797C19.4804 16.6465 20.4242 14.1219 22.1739 12.1535C23.984 10.1172 26.5557 8.79578 30 8.79578C33.4443 8.79578 36.016 10.1172 37.8261 12.1535C39.5758 14.1219 40.5196 16.6465 41.0381 18.9797C41.5611 21.3329 41.6864 23.653 41.6864 25.3615C41.6864 25.6383 41.6831 25.9005 41.6775 26.1456C44.8198 26.2052 47.3489 28.7711 47.3489 31.9276V45.4212C47.3489 48.6151 44.7598 51.2041 41.5659 51.2041H18.4341C15.2403 51.2041 12.6511 48.6151 12.6511 45.4212V31.9276C12.6511 28.7711 15.1801 26.2052 18.3225 26.1456ZM37.8211 26.1447C37.8272 25.903 37.8311 25.6409 37.8311 25.3615C37.8311 23.8172 37.7154 21.8001 37.2746 19.816C36.8293 17.812 36.0864 15.9994 34.9446 14.7148C33.8632 13.4983 32.3386 12.6511 30 12.6511C27.6614 12.6511 26.1368 13.4983 25.0554 14.7148C23.9136 15.9994 23.1707 17.812 22.7254 19.816C22.2845 21.8001 22.1689 23.8172 22.1689 25.3615C22.1689 25.6409 22.1727 25.903 22.1788 26.1447H37.8211ZM43.4936 31.9276C43.4936 30.863 42.6306 30 41.5659 30H18.4341C17.3695 30 16.5064 30.863 16.5064 31.9276V45.4212C16.5064 46.4858 17.3695 47.3488 18.4341 47.3488H41.5659C42.6306 47.3488 43.4936 46.4858 43.4936 45.4212V31.9276Z" fill="#FFEB00"/>
</svg>
