<svg width="60" height="60" viewBox="0 0 60 60" fill="none" xmlns="http://www.w3.org/2000/svg">
<path d="M23.4943 21.8679C24.3926 21.8679 25.1207 22.5961 25.1207 23.4943V36.5056C25.1207 37.4038 24.3926 38.132 23.4943 38.132C22.5961 38.132 21.8679 37.4038 21.8679 36.5056V23.4943C21.8679 22.5961 22.5961 21.8679 23.4943 21.8679Z" fill="#FFEB00"/>
<path d="M38.132 36.5056V23.4943C38.132 22.5961 37.4038 21.8679 36.5056 21.8679C35.6073 21.8679 34.8792 22.5961 34.8792 23.4943V36.5056C34.8792 37.4038 35.6073 38.132 36.5056 38.132C37.4038 38.132 38.132 37.4038 38.132 36.5056Z" fill="#FFEB00"/>
<path fill-rule="evenodd" clip-rule="evenodd" d="M19.1573 10.4832C14.3667 10.4832 10.4832 14.3667 10.4832 19.1573V40.8428C10.4832 45.6334 14.3667 49.5168 19.1573 49.5168H40.8428C45.6334 49.5168 49.5168 45.6334 49.5168 40.8428V19.1573C49.5168 14.3667 45.6334 10.4832 40.8428 10.4832H19.1573ZM40.8428 14.3865H19.1573C16.5225 14.3865 14.3865 16.5225 14.3865 19.1573V40.8428C14.3865 43.4776 16.5225 45.6135 19.1573 45.6135H40.8428C43.4776 45.6135 45.6135 43.4776 45.6135 40.8428V19.1573C45.6135 16.5225 43.4776 14.3865 40.8428 14.3865Z" fill="#FFEB00"/>
<path d="M36.5056 34.4726C38.0775 34.4726 39.3518 33.1983 39.3518 31.6264C39.3518 30.0544 38.0775 28.7802 36.5056 28.7802C34.9337 28.7802 33.6594 30.0544 33.6594 31.6264C33.6594 33.1983 34.9337 34.4726 36.5056 34.4726ZM23.4944 31.2198C25.0663 31.2198 26.3406 29.9455 26.3406 28.3736C26.3406 26.8016 25.0663 25.5273 23.4944 25.5273C21.9225 25.5273 20.6482 26.8016 20.6482 28.3736C20.6482 29.9455 21.9225 31.2198 23.4944 31.2198Z" stroke="#FFEB00" stroke-width="2.43961"/>
</svg>
