<svg width="60" height="60" viewBox="0 0 60 60" fill="none" xmlns="http://www.w3.org/2000/svg">
<path d="M19.5134 23.2272H12.1477V44.6557H19.5134V23.2272Z" fill="#FFEB00"/>
<path d="M34.1906 28.9448C33.8 29.452 33.5864 30.0665 33.5864 30.7089C33.5864 31.5021 33.903 32.238 34.4777 32.7946C35.0524 33.352 35.8184 33.6589 36.6284 33.6589C37.4391 33.6589 38.2051 33.352 38.7791 32.8023C39.8624 31.7518 39.9581 30.1021 39.059 28.9449L34.1906 28.9448Z" fill="#FFEB00"/>
<path d="M32.7686 40.0804V44.6591H40.1342V40.2088C39.0221 40.5946 37.8368 40.7947 36.6284 40.7947C35.2883 40.7948 33.9769 40.5451 32.7686 40.0804Z" fill="#FFEB00"/>
<path d="M26.2359 30.7089C26.2359 28.0164 27.3106 25.4879 29.2771 23.5807C29.4541 23.4091 29.6311 23.2445 29.8224 23.0945V14.6592H22.4568V44.6592H29.8224V38.3303C29.6311 38.1803 29.4541 38.0164 29.2771 37.8449C27.3105 35.9377 26.2359 33.4092 26.2359 30.7089Z" fill="#FFEB00"/>
<path d="M47.4804 38.7693L43.5062 35.0151C44.3536 33.7443 44.8124 32.2641 44.8124 30.712C44.8124 28.5887 43.9615 26.5951 42.4172 25.0975C40.8728 23.5998 38.8171 22.7747 36.6275 22.7747C34.438 22.7747 32.3815 23.5998 30.8379 25.0975C29.2928 26.5951 28.4426 28.5887 28.4426 30.712C28.4426 32.8354 29.2928 34.8296 30.8372 36.3272C32.3815 37.8248 34.438 38.6501 36.6276 38.6501C38.228 38.6501 39.7551 38.2043 41.0656 37.3826L44.9355 41.2352C45.6569 42.0785 46.7215 42.1287 47.5444 41.3307C48.368 40.5334 48.35 39.4669 47.4804 38.7693ZM36.6276 34.9719C35.4543 34.9719 34.351 34.5283 33.5209 33.724C32.6916 32.9198 32.2348 31.8497 32.2348 30.712C32.2348 29.5744 32.6916 28.505 33.5209 27.7007C34.351 26.8964 35.4537 26.4527 36.6276 26.4527C37.8 26.4527 38.9034 26.8964 39.7328 27.7007C41.4454 29.3616 41.4454 32.0638 39.7328 33.7246C38.9034 34.529 37.8007 34.9719 36.6276 34.9719Z" fill="#FFEB00"/>
</svg>
