<svg width="20" height="20" viewBox="0 0 20 20" fill="none" xmlns="http://www.w3.org/2000/svg">
<path d="M8.125 10C8.125 8.9645 8.9645 8.125 10 8.125C11.0355 8.125 11.875 8.9645 11.875 10C11.875 11.0355 11.0355 11.875 10 11.875C8.9645 11.875 8.125 11.0355 8.125 10Z" fill="white"/>
<path fill-rule="evenodd" clip-rule="evenodd" d="M1.66675 10C1.66675 11.3662 2.02088 11.8263 2.72916 12.7464C4.14338 14.5837 6.51517 16.6667 10.0001 16.6667C13.485 16.6667 15.8567 14.5837 17.271 12.7464C17.9792 11.8263 18.3334 11.3662 18.3334 10C18.3334 8.63384 17.9792 8.17379 17.271 7.25362C15.8567 5.41631 13.485 3.33334 10.0001 3.33334C6.51517 3.33334 4.14338 5.41631 2.72916 7.25362C2.02088 8.17379 1.66675 8.63384 1.66675 10ZM10.0001 6.87501C8.27419 6.87501 6.87508 8.27412 6.87508 10C6.87508 11.7259 8.27419 13.125 10.0001 13.125C11.726 13.125 13.1251 11.7259 13.1251 10C13.1251 8.27412 11.726 6.87501 10.0001 6.87501Z" fill="white"/>
</svg>
